<svg xmlns="http://www.w3.org/2000/svg" xmlns:xlink="http://www.w3.org/1999/xlink" width="1080" zoomAndPan="magnify" viewBox="0 0 810 809.999993" height="1080" preserveAspectRatio="xMidYMid meet" version="1.0"><defs><clipPath id="id1"><path d="M 272 284 L 371 284 L 371 404 L 272 404 Z M 272 284 " clip-rule="nonzero"/></clipPath><clipPath id="id2"><path d="M 310.132812 433.003906 L 228.414062 373.222656 L 314.320312 255.789062 L 396.039062 315.570312 Z M 310.132812 433.003906 " clip-rule="nonzero"/></clipPath><clipPath id="id3"><path d="M 310.132812 433.003906 L 228.414062 373.222656 L 314.320312 255.789062 L 396.039062 315.570312 Z M 310.132812 433.003906 " clip-rule="nonzero"/></clipPath><clipPath id="id4"><path d="M 172 406 L 271 406 L 271 526 L 172 526 Z M 172 406 " clip-rule="nonzero"/></clipPath><clipPath id="id5"><path d="M 233.570312 376.996094 L 315.289062 436.777344 L 229.382812 554.207031 L 147.664062 494.429688 Z M 233.570312 376.996094 " clip-rule="nonzero"/></clipPath><clipPath id="id6"><path d="M 233.570312 376.996094 L 315.289062 436.777344 L 229.382812 554.207031 L 147.664062 494.429688 Z M 233.570312 376.996094 " clip-rule="nonzero"/></clipPath><clipPath id="id7"><path d="M 475 284 L 573 284 L 573 404 L 475 404 Z M 475 284 " clip-rule="nonzero"/></clipPath><clipPath id="id8"><path d="M 512.25 433.003906 L 430.53125 373.222656 L 516.4375 255.789062 L 598.15625 315.570312 Z M 512.25 433.003906 " clip-rule="nonzero"/></clipPath><clipPath id="id9"><path d="M 512.25 433.003906 L 430.53125 373.222656 L 516.4375 255.789062 L 598.15625 315.570312 Z M 512.25 433.003906 " clip-rule="nonzero"/></clipPath><clipPath id="id10"><path d="M 374 406 L 473 406 L 473 526 L 374 526 Z M 374 406 " clip-rule="nonzero"/></clipPath><clipPath id="id11"><path d="M 435.6875 376.996094 L 517.40625 436.777344 L 431.5 554.207031 L 349.78125 494.429688 Z M 435.6875 376.996094 " clip-rule="nonzero"/></clipPath><clipPath id="id12"><path d="M 435.6875 376.996094 L 517.40625 436.777344 L 431.5 554.207031 L 349.78125 494.429688 Z M 435.6875 376.996094 " clip-rule="nonzero"/></clipPath></defs><g clip-path="url(#id1)"><g clip-path="url(#id2)"><g clip-path="url(#id3)"><path fill="#4f46e5" d="M 279.332031 325.6875 L 272.9375 403.539062 L 342.511719 372.472656 C 357.894531 366.355469 369.277344 352.097656 370.726562 334.453125 C 372.785156 309.371094 353.992188 287.085938 328.753906 284.660156 C 303.523438 282.234375 281.402344 300.59375 279.332031 325.6875 Z M 279.332031 325.6875 " fill-opacity="1" fill-rule="nonzero"/></g></g></g><path stroke-linecap="round" transform="matrix(-23.869225, 32.628935, -32.572169, -23.8277, 325.523922, 331.299174)" fill="none" stroke-linejoin="miter" d="M 0.499985 -0.00000541042 L 3.544535 0.0000196049 " stroke="#4f46e5" stroke-width="1" stroke-opacity="1" stroke-miterlimit="4"/><g clip-path="url(#id4)"><g clip-path="url(#id5)"><g clip-path="url(#id6)"><path fill="#4f46e5" d="M 264.371094 484.3125 L 270.765625 406.457031 L 201.1875 437.527344 C 185.804688 443.644531 174.421875 457.902344 172.972656 475.546875 C 170.914062 500.628906 189.707031 522.914062 214.949219 525.339844 C 240.179688 527.761719 262.300781 509.40625 264.371094 484.3125 Z M 264.371094 484.3125 " fill-opacity="1" fill-rule="nonzero"/></g></g></g><g clip-path="url(#id7)"><g clip-path="url(#id8)"><g clip-path="url(#id9)"><path fill="#4f46e5" d="M 481.449219 325.6875 L 475.054688 403.539062 L 544.628906 372.472656 C 560.011719 366.355469 571.394531 352.097656 572.84375 334.453125 C 574.902344 309.371094 556.109375 287.085938 530.871094 284.660156 C 505.640625 282.234375 483.519531 300.59375 481.449219 325.6875 Z M 481.449219 325.6875 " fill-opacity="1" fill-rule="nonzero"/></g></g></g><path stroke-linecap="round" transform="matrix(-23.869225, 32.628935, -32.572169, -23.8277, 527.640913, 331.299174)" fill="none" stroke-linejoin="miter" d="M 0.499982 -0.00000934755 L 3.544533 0.0000156677 " stroke="#4f46e5" stroke-width="1" stroke-opacity="1" stroke-miterlimit="4"/><g clip-path="url(#id10)"><g clip-path="url(#id11)"><g clip-path="url(#id12)"><path fill="#4f46e5" d="M 466.484375 484.3125 L 472.882812 406.457031 L 403.304688 437.527344 C 387.921875 443.644531 376.539062 457.902344 375.089844 475.546875 C 373.03125 500.628906 391.824219 522.914062 417.066406 525.339844 C 442.296875 527.761719 464.417969 509.40625 466.484375 484.3125 Z M 466.484375 484.3125 " fill-opacity="1" fill-rule="nonzero"/></g></g></g><path stroke-linecap="round" transform="matrix(23.590604, 32.830941, -32.773826, 23.549565, 324.54778, 337.823588)" fill="none" stroke-linejoin="miter" d="M 0.499994 -0.0000246738 L 3.544462 -0.00000862197 " stroke="#4f46e5" stroke-width="1" stroke-opacity="1" stroke-miterlimit="4"/><path fill="#4f46e5" d="M 620.769531 445.074219 C 597.988281 445.074219 579.519531 463.542969 579.519531 486.324219 C 579.519531 509.105469 597.988281 527.574219 620.769531 527.574219 C 643.550781 527.574219 662.019531 509.105469 662.019531 486.324219 C 662.019531 463.542969 643.550781 445.074219 620.769531 445.074219 " fill-opacity="1" fill-rule="nonzero"/></svg>