<svg xmlns="http://www.w3.org/2000/svg" xmlns:xlink="http://www.w3.org/1999/xlink" width="500" zoomAndPan="magnify" viewBox="0 0 375 374.999991" height="500" preserveAspectRatio="xMidYMid meet" version="1.0"><defs><clipPath id="id1"><path d="M 96 104 L 164 104 L 164 186.890625 L 96 186.890625 Z M 96 104 " clip-rule="nonzero"/></clipPath><clipPath id="id2"><path d="M 121.964844 206.949219 L 65.441406 165.601562 L 124.863281 84.378906 L 181.382812 125.726562 Z M 121.964844 206.949219 " clip-rule="nonzero"/></clipPath><clipPath id="id3"><path d="M 121.964844 206.949219 L 65.441406 165.601562 L 124.863281 84.378906 L 181.382812 125.726562 Z M 121.964844 206.949219 " clip-rule="nonzero"/></clipPath><clipPath id="id4"><path d="M 26.421875 188.273438 L 94.898438 188.273438 L 94.898438 271 L 26.421875 271 Z M 26.421875 188.273438 " clip-rule="nonzero"/></clipPath><clipPath id="id5"><path d="M 69.007812 168.210938 L 125.53125 209.5625 L 66.113281 290.78125 L 9.589844 249.4375 Z M 69.007812 168.210938 " clip-rule="nonzero"/></clipPath><clipPath id="id6"><path d="M 69.007812 168.210938 L 125.53125 209.5625 L 66.113281 290.78125 L 9.589844 249.4375 Z M 69.007812 168.210938 " clip-rule="nonzero"/></clipPath><clipPath id="id7"><path d="M 236 104 L 303.78125 104 L 303.78125 186.890625 L 236 186.890625 Z M 236 104 " clip-rule="nonzero"/></clipPath><clipPath id="id8"><path d="M 261.761719 206.949219 L 205.242188 165.601562 L 264.660156 84.378906 L 321.179688 125.726562 Z M 261.761719 206.949219 " clip-rule="nonzero"/></clipPath><clipPath id="id9"><path d="M 261.761719 206.949219 L 205.242188 165.601562 L 264.660156 84.378906 L 321.179688 125.726562 Z M 261.761719 206.949219 " clip-rule="nonzero"/></clipPath><clipPath id="id10"><path d="M 166.140625 188.273438 L 234.613281 188.273438 L 234.613281 271 L 166.140625 271 Z M 166.140625 188.273438 " clip-rule="nonzero"/></clipPath><clipPath id="id11"><path d="M 208.808594 168.210938 L 265.328125 209.5625 L 205.910156 290.78125 L 149.386719 249.4375 Z M 208.808594 168.210938 " clip-rule="nonzero"/></clipPath><clipPath id="id12"><path d="M 208.808594 168.210938 L 265.328125 209.5625 L 205.910156 290.78125 L 149.386719 249.4375 Z M 208.808594 168.210938 " clip-rule="nonzero"/></clipPath></defs><g clip-path="url(#id1)"><g clip-path="url(#id2)"><g clip-path="url(#id3)"><path fill="#4f46e5" d="M 100.660156 132.722656 L 96.238281 186.570312 L 144.359375 165.082031 C 155 160.851562 162.875 150.992188 163.875 138.785156 C 165.300781 121.4375 152.300781 106.023438 134.84375 104.347656 C 117.394531 102.667969 102.09375 115.367188 100.660156 132.722656 Z M 100.660156 132.722656 " fill-opacity="1" fill-rule="nonzero"/></g></g></g><path stroke-linecap="round" transform="matrix(-16.50955, 22.568339, -22.529077, -16.480819, 132.610001, 136.606001)" fill="none" stroke-linejoin="miter" d="M 0.500008 -0.0000166078 L 3.544604 0.0000154552 " stroke="#4f46e5" stroke-width="1" stroke-opacity="1" stroke-miterlimit="4"/><g clip-path="url(#id4)"><g clip-path="url(#id5)"><g clip-path="url(#id6)"><path fill="#4f46e5" d="M 90.3125 242.4375 L 94.734375 188.589844 L 46.609375 210.078125 C 35.972656 214.3125 28.097656 224.171875 27.097656 236.375 C 25.671875 253.726562 38.671875 269.140625 56.128906 270.816406 C 73.582031 272.492188 88.882812 259.796875 90.3125 242.4375 Z M 90.3125 242.4375 " fill-opacity="1" fill-rule="nonzero"/></g></g></g><g clip-path="url(#id7)"><g clip-path="url(#id8)"><g clip-path="url(#id9)"><path fill="#4f46e5" d="M 240.457031 132.722656 L 236.035156 186.570312 L 284.160156 165.082031 C 294.796875 160.851562 302.671875 150.992188 303.671875 138.785156 C 305.097656 121.4375 292.097656 106.023438 274.640625 104.347656 C 257.191406 102.667969 241.890625 115.367188 240.457031 132.722656 Z M 240.457031 132.722656 " fill-opacity="1" fill-rule="nonzero"/></g></g></g><path stroke-linecap="round" transform="matrix(-16.50955, 22.568339, -22.529077, -16.480819, 272.407986, 136.606001)" fill="none" stroke-linejoin="miter" d="M 0.500031 0.00001547 L 3.544627 0.0000475329 " stroke="#4f46e5" stroke-width="1" stroke-opacity="1" stroke-miterlimit="4"/><g clip-path="url(#id10)"><g clip-path="url(#id11)"><g clip-path="url(#id12)"><path fill="#4f46e5" d="M 230.109375 242.4375 L 234.535156 188.589844 L 186.410156 210.078125 C 175.769531 214.3125 167.894531 224.171875 166.894531 236.375 C 165.46875 253.726562 178.46875 269.140625 195.925781 270.816406 C 213.378906 272.492188 228.679688 259.796875 230.109375 242.4375 Z M 230.109375 242.4375 " fill-opacity="1" fill-rule="nonzero"/></g></g></g><path stroke-linecap="round" transform="matrix(16.316829, 22.708069, -22.668558, 16.28845, 131.935997, 141.117984)" fill="none" stroke-linejoin="miter" d="M 0.500005 0.0000325932 L 3.544433 0.0000162734 " stroke="#4f46e5" stroke-width="1" stroke-opacity="1" stroke-miterlimit="4"/><path fill="#4f46e5" d="M 336.820312 215.300781 C 321.066406 215.300781 308.289062 228.074219 308.289062 243.832031 C 308.289062 259.585938 321.066406 272.363281 336.820312 272.363281 C 352.578125 272.363281 365.351562 259.585938 365.351562 243.832031 C 365.351562 228.074219 352.578125 215.300781 336.820312 215.300781 " fill-opacity="1" fill-rule="nonzero"/></svg>